<?xml version="1.0" encoding="UTF-8"?>
<svg width="32px" height="32px" xmlns="http://www.w3.org/2000/svg" fill="none" viewBox="0 0 32 32"><path fill="#FF8B17" d="M32 16c0 10.504-5.496 16-16 16S0 26.504 0 16 5.496 0 16 0s16 5.496 16 16Z" opacity=".3" data-follow-fill="#FF8B17"/><path fill="#FF8B17" d="M6 24.639v-1.45c0-.2.161-.361.361-.364.218-.003.429-.004.703-.004V10.432c0-1.577.443-2.226 1.917-2.815 2.02-.806 4.038-1.621 6.065-2.409 1.408-.547 2.65.01 3.075 1.372.1.324.103.686.105 1.032.005 4.828.004 9.656.004 14.483v.719h2.256V13.03c.003-1.074.41-1.176 1.551-.519.683.395 1.406.71 2.129 1.02.593.252.817.61.808 1.257-.034 2.443-.014 4.886-.014 7.33v.7h.676c.2 0 .364.164.364.364v1.454c0 .2-.164.364-.364.364H6.364A.36.36 0 0 1 6 24.639Zm4.403-10.744h4.486a1.097 1.097 0 0 0 1.098-1.095 1.097 1.097 0 0 0-1.098-1.095h-4.486A1.097 1.097 0 0 0 9.306 12.8c0 .604.491 1.095 1.097 1.095Zm.006 5.587h4.461a1.105 1.105 0 1 0 0-2.208h-4.461a1.106 1.106 0 0 0-.424 2.123c.134.055.278.083.424.083v.002Z" data-follow-fill="#FF8B17"/></svg>
